<mxfile host="app.diagrams.net" modified="2023-07-12T09:07:47.282Z" agent="Mozilla/5.0 (Windows NT 10.0; Win64; x64) AppleWebKit/537.36 (KHTML, like Gecko) Chrome/114.0.0.0 Safari/537.36 Edg/114.0.1823.79" version="21.6.2" etag="Yi7kqgpfW6ZGBBHxgmYh" type="github">
  <diagram name="1 oldal" id="ZEQYvsnvj8837pzjQWAx">
    <mxGraphModel>
      <root>
        <mxCell id="0" />
        <mxCell id="1" parent="0" />
      </root>
    </mxGraphModel>
  </diagram>
</mxfile>
